HIERARCHY
ROOT pelvis
{
  OFFSET 0 100 0
  CHANNELS 6 Xposition Yposition Zposition Zrotation Xrotation Yrotation
  JOINT pelvis_right_femur
  {
    OFFSET -10.78128 -3.44521 -0.5502486
    CHANNELS 3 Zrotation Xrotation Yrotation
    JOINT right_femur_tibia
    {
      OFFSET -0.8047443 -44.0398 -0.1307829
      CHANNELS 3 Zrotation Xrotation Yrotation
      JOINT right_tibia_foot
      {
        OFFSET 3.006224 -47.83518 -5
        CHANNELS 3 Zrotation Xrotation Yrotation
        End Site
        {
          OFFSET 0 -5 15
        }
      }
    }
  }
  JOINT pelvis_left_femur
  {
    OFFSET 10.78128 -3.44521 -0.5502486
    CHANNELS 3 Zrotation Xrotation Yrotation
    JOINT left_femur_tibia
    {
      OFFSET 0.8047443 -44.0398 -0.1307829
      CHANNELS 3 Zrotation Xrotation Yrotation
      JOINT left_tibia_foot
      {
        OFFSET -4.370144 -48.10324 -4.275266
        CHANNELS 3 Zrotation Xrotation Yrotation
        End Site
        {
          OFFSET 0 -5 15
        }
      }
    }
  }
  JOINT pelvis_spine1
  {
    OFFSET 0 6.468898 -3.129235
    CHANNELS 3 Zrotation Xrotation Yrotation
    JOINT spine1
    {
      OFFSET 0 23.15396 4.99043
      CHANNELS 3 Zrotation Xrotation Yrotation
      JOINT spine2
      {
        OFFSET 0 20.79997 -5.064912
        CHANNELS 3 Zrotation Xrotation Yrotation
        JOINT neck
        {
          OFFSET 0 14.38658 9.616178
          CHANNELS 3 Zrotation Xrotation Yrotation
          End Site
          {
            OFFSET 0 20 0
          }
        }
      }
      JOINT right_manubrium
      {
        OFFSET -5.722621 16.35077 3.967754
        CHANNELS 3 Zrotation Xrotation Yrotation
        JOINT right_clavicle
        {
          OFFSET -13.16364 1.694482 -4.693211
          CHANNELS 3 Zrotation Xrotation Yrotation
          JOINT right_humerus
          {
            OFFSET -28.5034 -0.3100689 -2.792744
            CHANNELS 3 Zrotation Xrotation Yrotation
            JOINT right_radius
            {
              OFFSET -25.15693 0.02248979 -1.271978
              CHANNELS 3 Zrotation Xrotation Yrotation
              End Site
              {
                OFFSET -15 0 0
              }
            }
          }
        }
      }
      JOINT left_manubrium
      {
        OFFSET 5.722621 16.35077 3.967754
        CHANNELS 3 Zrotation Xrotation Yrotation
        JOINT left_clavicle
        {
          OFFSET 13.16364 1.694482 -4.693211
          CHANNELS 3 Zrotation Xrotation Yrotation
          JOINT left_humerus
          {
            OFFSET 29.39168 -1.063119 -2.237045
            CHANNELS 3 Zrotation Xrotation Yrotation
            JOINT left_radius
            {
              OFFSET 24.59957 -0.9528479 0.9047498
              CHANNELS 3 Zrotation Xrotation Yrotation
              End Site
              {
                OFFSET 15 -0 -0
              }
            }
          }
        }
      }
    }
  }
}
MOTION
Frames: 11
Frame Time: 0.0416666666667
312.9391 88.41529 2932.555 3.064373 -9.313091 8.802114 -0.1683591 -14.76692 2.230489 -0 39.43714 -0 0.9900293 -9.657642 -9.721885 -5.263047 10.10009 -9.080295 -0 19.4548 -0 -6.367011 -17.38382 14.4567 -1.471176 -0.12332 6.978408 -0.5292766 10.95677 -4.767894 1.535157 21.25495 5.568861 2.43914 -15.74816 6.277654 3.9306 -19.58968 12.40937 83.69504 22.57211 -14.84702 -0 0 21.99857 -21.12146 11.98182 11.3549 4.591384 -16.82996 -4.211734 -91.89809 24.98654 22.06397 0 0 -16.36599 -5.133142 6.327681 18.72872
313.6482 87.89955 2938.619 3.289191 -9.342452 9.630567 -0.2751866 -17.31439 1.976332 -0 31.86502 -0 0.09678835 -10.74016 -10.5669 -5.097755 13.75109 -9.067234 -0 20.88652 -0 -7.200878 -18.16433 14.19392 -1.575963 -0.1571337 6.819004 -0.429401 10.93664 -4.863709 1.501643 21.31116 5.597804 2.407968 -15.7727 6.309199 4.021979 -19.47174 12.41718 83.75513 22.68978 -15.03366 -0 0 21.69295 -21.06765 11.95956 11.36907 4.536805 -16.84598 -4.246478 -91.77465 25.05706 21.8668 0 0 -16.36802 -5.176582 6.434679 18.69171
314.2419 87.36817 2945.118 3.348737 -9.368202 10.21182 0.1254836 -18.47074 2.17802 -0 26.31149 -0 -0.8446648 -10.80204 -11.1503 -4.772441 16.5686 -8.959664 -0 24.40251 -0 -7.942448 -17.87866 14.20252 -1.616478 -0.1794586 6.777067 -0.4195979 10.92367 -4.873203 1.494787 21.34099 5.602904 2.386811 -15.73792 6.329749 4.047803 -19.44597 12.41096 83.7697 22.70115 -15.07137 -0 0 21.64906 -21.04511 11.93675 11.3627 4.528848 -16.82987 -4.248318 -91.77487 25.10465 21.84884 0 0 -16.31897 -5.214291 6.481077 18.69404
314.7393 87.1679 2952.01 3.072132 -9.478517 10.45899 1.232691 -18.35596 2.924554 -0 23.67159 -0 -1.850462 -10.09834 -11.36288 -4.229382 18.18183 -8.750492 -0 30.18338 -0 -8.452545 -16.32854 14.55835 -1.593464 -0.1945107 6.850911 -0.4985582 10.91564 -4.798188 1.511271 21.34456 5.58955 2.379955 -15.64943 6.34017 4.016539 -19.51259 12.39376 83.73882 22.6186 -14.97537 -0 0 21.86895 -21.03577 11.91362 11.32561 4.569061 -16.78377 -4.216211 -91.91358 25.14821 22.0246 0 0 -16.2263 -5.256945 6.478663 18.74532
315.1719 87.54721 2959.108 2.466813 -9.715092 10.28372 2.90023 -16.94852 4.120881 -0 23.43085 -0 -2.818514 -9.16961 -11.1985 -3.544724 18.02603 -8.426553 -0 37.84165 -0 -8.648888 -13.72735 15.29603 -1.512199 -0.2079033 7.027116 -0.6532986 10.90819 -4.65016 1.546539 21.32235 5.563856 2.391365 -15.5222 6.34078 3.944504 -19.66426 12.36989 83.66049 22.47605 -14.76741 -0 0 22.32687 -21.01004 11.88709 11.24939 4.653929 -16.71581 -4.152273 -92.19377 25.20773 22.39408 0 0 -16.11523 -5.315546 6.455609 18.85568
315.5933 88.53663 2966.158 1.797721 -10.05508 9.67659 4.582186 -14.07896 5.433143 -0 23.98515 -0 -3.374549 -8.52405 -10.74015 -2.929282 15.56188 -7.941109 -0 46.2066 -0 -8.648813 -10.78239 16.29953 -1.376976 -0.2232121 7.288246 -0.8663112 10.89914 -4.446329 1.597293 21.27211 5.529821 2.424354 -15.37279 6.329869 3.847782 -19.88901 12.34329 83.53406 22.31125 -14.4708 -0 0 22.98046 -20.9425 11.85654 11.13005 4.778975 -16.64103 -4.061868 -92.60049 25.29109 22.93669 0 0 -16.02758 -5.392965 6.439927 19.0296
316.0551 89.91428 2972.955 1.43979 -10.43663 8.76073 5.610103 -9.729621 6.445046 -0 23.68743 -0 -3.126763 -8.407219 -10.10418 -2.54337 10.72292 -7.292498 -0 53.40882 -0 -8.735332 -8.429956 17.36658 -1.183252 -0.2365422 7.627508 -1.130072 10.8915 -4.196771 1.667517 21.1877 5.481245 2.476692 -15.20169 6.30337 3.72434 -20.17857 12.31156 83.3629 22.12992 -14.08728 -0 0 23.80119 -20.83692 11.82592 10.97312 4.944119 -16.57324 -3.950624 -93.10052 25.37564 23.61388 0 0 -15.99876 -5.474957 6.434304 19.25897
316.5729 91.31206 2979.417 1.528247 -10.75162 7.724588 5.729506 -4.39878 6.967769 -0 22.03973 -0 -2.156657 -8.832646 -9.340144 -2.299198 4.158669 -6.574887 -0 57.48557 -0 -9.049045 -7.234468 18.36131 -0.9164756 -0.234014 8.055747 -1.453741 10.89107 -3.893488 1.772823 21.0621 5.393831 2.532933 -14.98045 6.256043 3.542323 -20.53453 12.2607 83.15024 21.88236 -13.56944 -0 0 24.79644 -20.7408 11.79766 10.80131 5.152764 -16.51092 -3.820243 -93.64797 25.3973 24.37979 0 0 -16.02438 -5.53048 6.406587 19.52106
317.1431 92.38299 2985.577 1.840686 -10.84927 6.70237 5.25253 1.019317 7.110744 -0 19.72416 -0 -0.9628058 -9.7641 -8.421471 -1.944878 -3.054366 -5.86803 -0 57.28021 -0 -9.431983 -7.076918 19.22423 -0.5754612 -0.199756 8.571276 -1.837072 10.89734 -3.527294 1.931149 20.89851 5.234062 2.561246 -14.67282 6.187121 3.261682 -20.95166 12.16999 82.89557 21.49935 -12.83982 -0 0 25.95844 -20.7274 11.76133 10.66277 5.395085 -16.43201 -3.670082 -94.17864 25.27142 25.16894 0 0 -16.04467 -5.528132 6.319112 19.778
317.7812 92.91018 2991.538 2.062662 -10.62073 5.74281 4.649596 5.761391 7.068799 -0 17.66713 -0 0.07823791 -11.14643 -7.341391 -1.309977 -9.908897 -5.167947 -0 52.98475 -0 -9.655417 -7.456965 19.89275 -0.2096803 -0.1317577 9.109083 -2.228398 10.89597 -3.127283 2.137354 20.72474 4.994129 2.527824 -14.29403 6.109904 2.88305 -21.38566 12.02956 82.60933 20.97581 -11.88484 -0 0 27.1629 -20.84996 11.69321 10.62281 5.627637 -16.30637 -3.505497 -94.60846 24.95807 25.87396 0 0 -15.95992 -5.460308 6.16823 19.97756
318.5222 92.84137 2997.433 2.043495 -10.06905 4.857536 4.173265 9.495052 6.964256 -0 16.448 -0 0.9137009 -12.80715 -6.163427 -0.4424792 -15.69816 -4.481352 -0 45.9775 -0 -9.627619 -7.91556 20.2929 0.08811298 -0.04726019 9.552929 -2.537433 10.87105 -2.766565 2.347946 20.58773 4.722798 2.429983 -13.9401 6.049825 2.470706 -21.75672 11.85922 82.33624 20.40955 -10.8456 -0 0 28.17571 -21.10271 11.58195 10.7185 5.78791 -16.12305 -3.345543 -94.87527 24.52139 26.38431 0 0 -15.69212 -5.348723 5.97799 20.0707
